<svg width="128" height="128" viewBox="0 0 128 128" fill="none" xmlns="http://www.w3.org/2000/svg" role="img" aria-label="AskPDF logo">
  <defs>
    <linearGradient id="bg" x1="20" y1="16" x2="108" y2="112" gradientUnits="userSpaceOnUse">
      <stop stop-color="#6D83FF"/>
      <stop offset="1" stop-color="#2A5BFF"/>
    </linearGradient>
    <linearGradient id="hl" x1="34" y1="28" x2="90" y2="90" gradientUnits="userSpaceOnUse">
      <stop stop-color="#FFFFFF" stop-opacity="0.9"/>
      <stop offset="1" stop-color="#FFFFFF" stop-opacity="0.62"/>
    </linearGradient>
  </defs>
  <rect x="8" y="8" width="112" height="112" rx="28" fill="url(#bg)"/>
  <path d="M64 28L94 43V66C94 86.4 80.6 104.3 64 109C47.4 104.3 34 86.4 34 66V43L64 28Z" fill="url(#hl)"/>
  <path d="M64 39L84 49V66C84 79 75.9 92.1 64 96C52.1 92.1 44 79 44 66V49L64 39Z" fill="#1B3FC7" fill-opacity="0.22"/>
  <path d="M53 62.5H75" stroke="#FFFFFF" stroke-width="6" stroke-linecap="round"/>
  <path d="M53 75.5H70" stroke="#FFFFFF" stroke-width="6" stroke-linecap="round"/>
</svg>
