<svg xmlns="http://www.w3.org/2000/svg" version="1.0" width="2144.000000pt" height="1984.000000pt" viewBox="0 0 2144.000000 1984.000000" preserveAspectRatio="xMidYMid meet">

<g transform="translate(0.000000,1984.000000) scale(0.100000,-0.100000)" fill="#000000" stroke="none">
<path d="M11044 18663 c-30 -6 -67 -47 -66 -75 0 -26 32 -140 68 -242 14 -38 27 -85 30 -105 3 -20 13 -65 24 -101 10 -36 21 -85 24 -110 3 -25 8 -56 11 -70 2 -14 9 -65 15 -114 11 -87 33 -162 84 -284 15 -35 36 -116 47 -180 10 -65 31 -147 45 -183 14 -35 28 -75 30 -89 3 -14 7 -32 9 -40 3 -8 7 -35 10 -60 11 -91 38 -154 73 -169 15 -7 71 -12 136 -11 548 5 5081 4 5181 -2 137 -7 162 -11 192 -26 10 -5 36 -12 58 -15 22 -4 74 -15 115 -27 41 -11 98 -25 125 -31 28 -6 59 -16 70 -22 11 -6 26 -12 33 -13 8 -1 21 -9 30 -16 20 -17 81 -42 137 -56 22 -6 60 -16 85 -22 25 -7 59 -25 77 -40 17 -16 44 -31 60 -34 15 -4 55 -27 88 -52 33 -25 92 -67 131 -94 39 -27 74 -56 77 -64 3 -8 25 -27 49 -42 24 -14 59 -41 78 -59 19 -17 51 -41 70 -53 19 -11 60 -49 92 -84 31 -35 72 -80 92 -101 19 -22 48 -64 63 -95 15 -31 44 -73 65 -94 21 -21 53 -68 72 -106 19 -38 49 -81 66 -95 17 -15 38 -43 46 -64 22 -56 37 -86 53 -105 19 -22 56 -115 69 -170 6 -24 24 -81 42 -128 69 -187 84 -246 95 -381 3 -37 11 -97 18 -135 13 -69 20 -804 19 -1919 -1 -236 -1 -513 -1 -615 -2 -1245 3 -2057 13 -2069 6 -8 6 -12 1 -9 -9 5 -11 -161 -6 -407 1 -22 -1 -278 -3 -570 -2 -291 0 -551 4 -578 4 -26 4 -47 0 -47 -4 0 -6 -280 -6 -622 1 -343 -1 -643 -5 -668 -4 -25 -10 -76 -13 -114 -4 -38 -9 -73 -11 -76 -3 -4 -11 -62 -19 -129 -19 -152 -46 -264 -92 -383 -20 -51 -38 -103 -39 -116 -2 -13 -12 -40 -23 -60 -75 -143 -105 -191 -136 -220 -19 -18 -38 -43 -41 -55 -16 -53 -51 -137 -57 -137 -5 0 -8 -6 -8 -14 0 -8 -6 -16 -14 -19 -8 -3 -34 -36 -59 -74 -52 -81 -80 -114 -171 -208 -38 -38 -81 -82 -95 -97 -14 -16 -31 -28 -37 -28 -6 0 -38 -26 -72 -58 -130 -120 -160 -145 -210 -173 -28 -15 -60 -37 -71 -48 -27 -27 -89 -58 -134 -66 -21 -4 -40 -11 -43 -16 -3 -5 -12 -9 -21 -9 -8 0 -40 -15 -71 -34 -32 -19 -86 -44 -122 -56 -88 -29 -129 -48 -166 -76 -25 -18 -168 -68 -182 -63 -4 1 -144 -22 -217 -37 -39 -7 -132 -14 -210 -14 -77 -1 -617 -2 -1200 -4 -583 -2 -1077 -4 -1098 -5 -54 -1 -97 -45 -97 -98 0 -83 29 -203 70 -286 39 -81 47 -112 69 -282 11 -79 13 -97 31 -205 5 -30 12 -73 15 -95 4 -22 10 -49 15 -60 5 -11 20 -69 35 -130 15 -60 32 -123 39 -140 7 -16 18 -50 25 -75 6 -25 18 -69 26 -99 9 -29 17 -90 20 -135 7 -109 15 -146 38 -178 22 -30 44 -39 102 -44 30 -3 605 -15 670 -15 809 5 1244 13 1395 25 30 3 91 7 135 10 98 7 162 14 184 21 9 3 43 7 75 10 32 2 103 15 159 29 56 13 133 29 170 36 37 7 73 18 80 24 27 25 123 56 222 71 22 4 114 24 130 29 6 1 29 8 53 15 23 6 42 16 42 21 0 6 7 10 15 10 7 0 18 6 22 13 9 15 51 39 99 57 18 6 45 24 60 39 16 16 67 47 114 71 47 23 104 52 127 65 23 13 74 35 113 49 38 14 93 44 121 66 29 22 76 52 105 66 29 14 70 43 91 65 21 23 52 48 68 56 17 9 55 39 86 67 70 63 128 110 199 161 30 22 84 65 119 97 35 32 69 58 76 58 7 0 21 12 31 26 46 62 77 100 119 140 24 24 52 56 62 71 10 15 33 41 52 58 18 16 69 75 112 130 43 55 97 118 119 140 22 22 52 65 67 95 14 30 42 70 61 89 19 19 48 59 65 90 16 31 33 58 36 61 10 7 69 102 78 125 4 11 27 54 50 95 23 41 51 104 62 139 12 35 39 87 60 116 28 37 46 76 62 136 14 54 36 104 61 141 21 31 38 64 38 72 0 8 5 27 12 43 6 15 12 33 14 40 1 7 9 40 18 75 8 35 17 74 20 88 3 14 15 57 26 95 12 39 26 88 30 110 4 22 10 49 13 60 2 11 8 40 11 65 4 25 11 65 16 90 6 25 12 61 14 80 3 19 10 64 16 100 44 259 44 245 42 1240 -1 525 -1 1108 -1 1295 0 187 0 1161 -1 2165 0 1004 0 1960 0 2125 2 609 0 1082 -5 1150 -4 39 -10 111 -16 160 -5 50 -11 111 -14 136 -2 25 -13 99 -25 165 -12 65 -23 130 -25 144 -2 14 -7 39 -11 55 -3 17 -6 37 -6 45 1 26 -29 100 -40 100 -6 0 -8 3 -5 7 4 3 2 12 -4 20 -6 7 -8 13 -4 13 4 0 3 6 -3 13 -11 13 -52 170 -52 199 0 28 -30 110 -52 141 -11 15 -16 27 -12 27 4 0 -1 9 -11 20 -10 11 -15 20 -11 20 4 0 2 9 -4 21 -6 11 -18 45 -26 75 -12 48 -31 85 -79 150 -15 21 -38 76 -71 174 -9 25 -26 56 -39 70 -13 14 -35 49 -49 78 -15 29 -41 72 -59 95 -18 23 -38 60 -45 82 -8 22 -27 58 -43 80 -16 22 -45 65 -65 95 -67 101 -84 125 -119 164 -19 21 -35 42 -35 46 0 4 -36 46 -81 91 -44 46 -100 109 -122 139 -23 30 -57 68 -76 85 -19 16 -47 47 -62 68 -16 22 -63 69 -106 105 -43 36 -85 74 -94 84 -17 19 -86 68 -95 68 -3 0 -20 11 -38 25 -18 14 -37 25 -43 25 -5 0 -19 13 -30 28 -12 16 -46 45 -76 65 -30 20 -75 55 -99 78 -23 23 -61 52 -83 66 -22 14 -49 33 -60 43 -11 9 -49 33 -85 52 -36 19 -88 49 -117 67 -29 18 -78 41 -110 53 -75 26 -94 36 -118 62 -21 22 -42 33 -165 87 -41 18 -86 40 -100 50 -24 16 -91 38 -225 74 -33 9 -69 21 -80 26 -11 5 -38 13 -60 18 -22 5 -83 22 -135 36 -52 15 -115 31 -140 35 -25 5 -65 14 -90 20 -25 7 -55 14 -67 16 -13 2 -35 7 -50 10 -16 3 -39 7 -53 9 -14 2 -43 8 -65 14 -22 5 -83 13 -135 16 -99 7 -6009 14 -6046 8z" fill="#1A237E"/>
<path d="M5237 18644 c-1 -1 -45 -5 -97 -8 -52 -4 -108 -8 -125 -11 -16 -2 -57 -7 -90 -10 -33 -3 -74 -10 -91 -16 -18 -5 -36 -9 -40 -8 -5 1 -16 0 -24 -3 -68 -23 -84 -27 -93 -21 -6 4 -8 0 -4 -11 4 -9 3 -15 -2 -11 -5 3 -11 2 -14 -2 -2 -5 -2 -2 -1 5 2 6 -1 12 -6 12 -6 0 -10 -7 -10 -15 0 -8 -7 -15 -15 -15 -8 0 -15 5 -15 10 0 6 -5 10 -11 10 -5 0 -7 -4 -4 -10 3 -6 -4 -9 -17 -9 -48 3 -223 -14 -226 -22 -2 -4 -9 -6 -17 -3 -7 3 -16 1 -19 -5 -4 -5 -18 -8 -32 -5 -14 3 -31 1 -38 -4 -13 -10 -93 -40 -121 -45 -11 -2 -27 -7 -35 -10 -8 -3 -26 -8 -40 -10 -59 -12 -75 -17 -78 -26 -2 -6 -10 -7 -18 -4 -8 3 -14 0 -14 -7 0 -6 -4 -8 -10 -5 -5 3 -10 1 -10 -4 0 -6 -9 -11 -19 -11 -11 0 -23 -5 -26 -11 -4 -6 -14 -8 -22 -5 -8 3 -12 2 -9 -3 5 -7 -14 -21 -34 -25 -3 -1 -18 -6 -35 -13 -16 -6 -55 -19 -85 -28 -81 -24 -122 -44 -154 -76 -15 -16 -36 -30 -45 -31 -9 -1 -23 -2 -31 -3 -8 0 -20 -3 -25 -6 -6 -3 -31 -12 -57 -19 -52 -14 -123 -73 -111 -93 4 -7 0 -6 -10 2 -9 7 -17 10 -17 5 0 -10 -88 -50 -101 -46 -5 1 -9 -5 -9 -14 0 -8 -4 -13 -9 -9 -5 3 -16 -3 -23 -12 -15 -20 -39 -37 -80 -56 -15 -7 -49 -33 -75 -58 -46 -43 -79 -64 -95 -61 -5 1 -8 -2 -8 -8 0 -6 -3 -9 -7 -8 -11 3 -73 -34 -73 -44 0 -13 -51 -58 -65 -58 -8 0 -15 -4 -15 -9 0 -5 -13 -11 -28 -14 -17 -4 -33 -16 -40 -31 -6 -14 -16 -26 -22 -26 -5 0 -10 -6 -10 -14 0 -10 -8 -13 -22 -11 -15 3 -32 -7 -58 -33 -20 -20 -57 -55 -81 -78 -49 -46 -92 -94 -83 -94 3 0 -17 -22 -45 -48 -28 -27 -51 -53 -51 -59 0 -12 -43 -53 -56 -53 -5 0 -17 -12 -26 -27 -9 -16 -28 -40 -42 -54 -14 -15 -22 -30 -18 -35 4 -4 2 -4 -5 0 -6 3 -19 -4 -27 -16 -9 -12 -16 -19 -16 -14 0 5 -9 -3 -20 -17 -11 -14 -20 -30 -20 -37 0 -6 -12 -22 -26 -35 -15 -14 -23 -25 -19 -25 4 0 -7 -10 -26 -23 -18 -12 -40 -36 -49 -52 -8 -16 -21 -35 -28 -43 -6 -7 -12 -18 -12 -23 0 -5 -12 -22 -26 -37 -23 -25 -64 -100 -64 -119 0 -5 -21 -34 -48 -65 -28 -34 -48 -68 -50 -85 -1 -15 -6 -29 -12 -31 -5 -2 -7 -9 -4 -16 2 -6 -7 -23 -20 -35 -14 -13 -23 -28 -20 -32 3 -5 -1 -7 -8 -4 -18 7 -55 -54 -56 -94 0 -18 -7 -40 -15 -50 -8 -9 -12 -22 -10 -28 3 -7 0 -13 -7 -13 -6 0 -8 -4 -5 -10 3 -5 -1 -10 -10 -10 -9 0 -14 -4 -10 -9 3 -6 -1 -13 -9 -18 -22 -13 -64 -100 -72 -149 -3 -24 -11 -47 -16 -50 -9 -6 -23 -37 -28 -59 -1 -5 -8 -14 -16 -18 -8 -5 -12 -12 -9 -17 3 -5 1 -11 -4 -15 -5 -3 -8 -14 -6 -25 2 -11 1 -20 -3 -20 -6 0 -13 -40 -16 -97 0 -13 -5 -23 -9 -23 -5 0 -7 -6 -4 -12 2 -7 -5 -30 -16 -51 -11 -21 -22 -58 -25 -83 -2 -24 -9 -47 -13 -50 -5 -3 -9 -18 -9 -35 0 -16 -4 -29 -8 -29 -5 0 -9 -6 -9 -12 0 -18 -22 -117 -33 -148 -5 -14 -12 -70 -15 -124 -3 -55 -10 -103 -15 -106 -6 -4 -8 -14 -5 -22 4 -11 -1 -18 -14 -23 -12 -3 -19 -11 -16 -16 4 -5 0 -15 -8 -23 -39 -39 -40 -178 -41 -4156 0 -2098 3 -3846 7 -3885 3 -38 9 -101 13 -140 3 -38 12 -73 18 -77 8 -4 12 -27 12 -57 -1 -33 3 -52 12 -56 8 -3 10 0 6 8 -4 6 -3 9 1 4 5 -4 10 -31 12 -60 5 -62 10 -102 13 -102 1 0 4 -22 6 -50 6 -72 7 -75 13 -75 3 0 7 -19 9 -42 1 -22 6 -46 10 -52 4 -6 7 -18 7 -26 0 -8 4 -21 9 -28 4 -7 16 -53 26 -101 10 -49 25 -99 33 -112 8 -13 18 -37 21 -54 9 -44 16 -76 21 -108 3 -16 7 -34 8 -40 1 -7 5 -14 8 -17 4 -4 76 -225 85 -262 1 -5 3 -10 4 -13 1 -3 3 -8 4 -12 6 -22 33 -71 51 -91 11 -12 27 -30 35 -40 8 -9 23 -42 33 -74 11 -36 26 -62 42 -72 14 -9 25 -23 25 -31 0 -8 5 -15 10 -15 6 0 10 -7 10 -15 0 -8 5 -15 12 -15 6 0 9 -3 5 -6 -8 -8 13 -64 24 -64 5 0 9 -8 9 -19 0 -10 7 -24 15 -31 9 -7 13 -15 11 -17 -2 -3 3 -13 12 -22 32 -34 52 -61 44 -61 -4 0 -2 -4 3 -8 6 -4 20 -25 32 -47 12 -22 28 -39 35 -37 7 2 10 0 6 -4 -4 -4 4 -20 17 -36 14 -16 25 -36 25 -44 0 -8 11 -24 25 -36 14 -12 25 -28 25 -36 0 -9 3 -13 6 -9 10 10 64 -55 91 -110 14 -29 32 -55 42 -58 21 -6 71 -50 71 -61 0 -11 63 -84 73 -84 9 0 46 -37 43 -42 -2 -1 14 -20 35 -40 22 -20 39 -34 39 -30 0 4 10 -12 22 -35 12 -24 30 -45 39 -48 10 -4 53 -40 95 -80 43 -41 80 -73 82 -70 3 2 18 -3 34 -11 17 -9 28 -18 25 -21 -8 -7 53 -63 88 -80 17 -9 32 -19 35 -23 3 -4 16 -13 30 -20 14 -7 31 -21 38 -32 7 -10 18 -18 23 -18 14 0 73 -45 128 -97 24 -24 48 -43 53 -43 19 0 24 -2 41 -17 9 -9 17 -13 17 -9 0 8 20 -8 70 -57 21 -20 44 -37 52 -37 8 0 18 -3 22 -7 4 -4 13 -8 19 -8 27 -2 67 -18 67 -27 0 -6 7 -8 15 -4 8 3 15 0 15 -7 0 -10 67 -47 87 -47 3 0 36 -14 72 -32 36 -17 69 -31 74 -30 4 1 7 -2 7 -6 0 -9 37 -29 54 -30 5 0 12 -5 15 -10 3 -5 47 -22 96 -37 50 -15 97 -35 105 -45 26 -30 107 -61 167 -65 6 0 15 -4 19 -8 4 -4 17 -7 28 -7 12 0 39 -7 62 -15 23 -7 52 -16 65 -18 43 -8 69 -19 69 -29 0 -5 4 -7 9 -4 14 9 42 -5 35 -16 -4 -6 -1 -8 7 -6 8 3 23 1 34 -5 11 -6 38 -12 59 -13 22 -2 46 -6 54 -9 7 -3 53 -8 100 -11 48 -3 91 -10 96 -14 5 -5 19 -5 31 0 14 5 27 4 34 -3 8 -8 11 -8 11 2 0 7 5 9 13 4 11 -8 38 -10 149 -16 27 -1 48 -4 48 -7 0 -3 37 -6 83 -7 45 -1 96 -3 114 -6 17 -2 37 -1 44 4 7 4 21 3 31 -2 10 -5 18 -6 18 -2 0 4 14 8 30 8 17 0 30 -3 30 -6 0 -3 7 -6 15 -6 8 0 15 3 15 6 0 3 11 7 25 7 14 1 25 -1 25 -5 0 -11 165 -8 172 3 5 8 8 7 8 -1 0 -12 30 -10 50 2 6 3 10 2 10 -2 0 -5 11 -9 25 -9 14 0 25 4 25 9 0 5 5 5 13 -1 12 -10 413 -10 423 1 3 2 21 1 40 -3 19 -4 36 -4 39 1 3 4 12 6 21 2 24 -9 117 -9 137 0 9 4 17 4 17 0 0 -4 16 -8 35 -9 19 0 35 2 35 5 0 8 347 4 367 -3 9 -4 20 -1 25 6 6 10 10 10 16 1 4 -7 13 -9 21 -4 8 5 27 5 44 0 20 -6 35 -5 44 2 8 8 13 8 13 1 0 -11 25 -11 36 0 3 4 17 3 30 -2 13 -5 24 -6 24 -1 0 4 7 8 15 8 8 0 15 -3 15 -7 0 -3 16 -6 35 -6 19 0 35 4 35 8 0 6 33 -6 46 -16 0 -1 9 6 19 14 11 9 16 10 11 3 -9 -15 -9 -15 32 -4 17 5 32 6 32 2 0 -4 17 -6 38 -4 67 6 108 7 118 1 12 -7 87 -3 101 5 6 4 14 1 16 -5 3 -7 6 -8 6 -3 1 10 130 11 156 1 8 -3 17 -1 20 5 4 5 12 6 18 2 16 -10 38 -13 33 -5 -2 4 29 7 70 7 41 1 74 -3 74 -7 0 -5 10 -3 23 4 12 7 27 11 32 9 23 -7 95 -9 91 -2 -6 8 30 8 39 -1 3 -3 20 -4 38 -2 70 8 147 9 147 1 0 -4 11 -5 25 -1 17 4 25 2 25 -7 0 -11 3 -11 10 1 7 11 10 11 10 2 0 -9 5 -10 18 -4 19 9 339 8 349 -2 3 -3 12 -1 19 4 14 12 36 10 46 -5 5 -7 8 -6 8 1 0 6 24 10 60 9 36 -1 60 3 60 9 0 8 3 8 8 1 10 -15 69 -18 94 -4 12 7 18 7 14 1 -3 -6 -2 -13 4 -17 5 -3 10 -1 10 5 0 7 6 8 19 0 14 -7 22 -7 26 0 5 8 11 7 21 -1 11 -9 14 -9 14 0 0 9 5 9 20 1 11 -6 20 -7 20 -3 0 5 28 7 63 5 71 -3 64 -3 137 1 30 1 65 -1 78 -5 12 -4 22 -4 22 1 0 9 51 7 68 -3 7 -4 12 -4 12 1 0 12 124 10 132 -2 5 -6 8 -6 8 2 0 7 17 10 53 8 28 -1 60 2 71 7 10 6 16 6 13 1 -4 -6 46 -9 123 -9 72 1 130 -3 130 -7 0 -4 8 -4 18 1 9 5 26 7 37 5 11 -2 25 -4 30 -3 6 0 30 2 55 4 25 1 51 -1 58 -7 6 -5 12 -6 12 -1 0 5 24 9 54 9 30 0 52 -4 48 -9 -3 -5 2 -7 11 -3 10 3 17 3 17 -2 0 -4 12 -13 27 -20 15 -7 33 -21 41 -32 7 -10 21 -19 31 -19 16 0 81 -63 81 -79 0 -4 22 -20 50 -36 27 -17 50 -36 50 -42 0 -7 9 -13 19 -13 10 0 21 -7 25 -15 3 -8 17 -15 31 -15 14 0 25 -4 25 -10 0 -5 18 -13 40 -16 21 -4 47 -15 56 -25 9 -11 23 -19 30 -19 7 0 21 -13 31 -30 11 -20 33 -35 63 -46 76 -27 120 -47 115 -52 -2 -3 15 -18 38 -35 23 -16 51 -38 62 -49 41 -39 69 -59 92 -64 13 -4 23 -12 23 -19 0 -7 7 -16 16 -19 10 -4 13 -2 9 7 -4 6 -1 5 7 -4 7 -9 24 -20 38 -24 14 -4 34 -17 45 -29 19 -20 40 -32 135 -74 25 -11 60 -34 78 -50 18 -17 32 -25 32 -19 1 7 7 1 15 -13 8 -14 14 -21 15 -17 0 5 10 1 22 -7 12 -9 30 -16 40 -16 10 0 18 -7 18 -15 0 -8 4 -15 9 -15 6 0 21 -10 35 -23 45 -40 61 -52 108 -77 26 -13 44 -28 42 -32 -3 -4 4 -8 15 -8 11 0 24 -8 30 -17 5 -10 12 -17 15 -15 4 1 20 -5 36 -13 17 -9 30 -12 30 -8 0 3 24 -18 53 -48 31 -34 70 -62 97 -73 25 -9 62 -29 84 -43 21 -13 35 -19 31 -12 -5 8 -4 10 3 5 7 -4 12 -13 12 -21 0 -15 53 -50 91 -58 14 -4 35 -14 46 -24 12 -10 40 -34 62 -53 23 -19 43 -33 44 -30 2 3 21 -9 43 -27 22 -17 46 -33 54 -35 15 -3 42 -23 72 -51 10 -9 22 -17 27 -17 5 0 14 -7 21 -15 7 -8 16 -13 20 -10 4 2 23 -13 43 -35 19 -22 43 -40 51 -40 9 0 16 -4 16 -10 0 -5 11 -10 24 -10 13 0 29 -7 36 -15 7 -9 22 -15 33 -13 12 2 33 -8 48 -22 38 -35 63 -55 69 -55 20 0 120 -52 120 -62 0 -7 3 -12 8 -10 4 1 21 -10 37 -25 16 -15 32 -25 36 -23 4 3 12 -2 19 -10 7 -8 18 -15 25 -15 7 0 18 -7 25 -15 10 -12 10 -15 -1 -15 -11 0 -11 -2 1 -9 8 -6 17 -8 21 -5 4 2 10 -5 14 -16 4 -11 11 -18 16 -15 5 4 9 1 9 -4 0 -6 6 -11 13 -11 6 0 23 -9 37 -20 14 -11 33 -20 43 -20 9 0 17 -4 17 -10 0 -22 2 -26 23 -48 23 -25 71 -54 84 -50 4 1 18 -3 29 -10 12 -6 24 -9 27 -6 3 3 12 2 19 -2 41 -26 54 -13 62 64 4 36 -22 132 -36 132 -4 0 -5 6 -2 13 3 8 -2 20 -11 27 -8 7 -15 18 -15 24 0 7 -9 30 -19 51 -13 28 -16 46 -10 62 5 13 5 23 0 23 -5 0 -12 24 -16 52 -4 29 -9 58 -10 63 -1 6 -3 25 -3 43 -2 24 -6 31 -14 26 -10 -6 -10 -5 -1 7 10 12 9 21 -1 41 -8 15 -12 28 -10 30 2 2 -3 26 -11 52 -8 27 -12 52 -10 56 3 5 0 12 -6 15 -5 4 -8 13 -5 20 2 7 -2 22 -10 34 -12 16 -12 21 -2 21 8 0 9 3 3 8 -5 4 -17 16 -25 26 -13 18 -13 19 0 12 13 -7 13 -6 0 6 -8 7 -15 24 -16 38 -1 14 -4 41 -8 60 -4 19 -9 64 -12 100 -9 150 -18 216 -32 251 -6 15 -9 29 -6 31 2 3 -10 21 -28 40 -33 36 -38 46 -43 83 -2 11 -10 39 -18 63 -8 24 -14 51 -12 60 1 9 -2 27 -6 40 -5 13 -13 60 -19 105 -12 105 -19 139 -31 153 -5 6 -6 14 -2 17 3 4 2 12 -4 19 -5 7 -10 22 -11 33 -1 22 -6 48 -23 115 -6 25 -12 50 -13 55 -1 6 -5 16 -10 23 -4 7 -6 16 -2 19 3 3 -2 12 -10 20 -8 8 -11 19 -8 24 3 6 -2 19 -11 29 -10 11 -15 26 -11 35 3 9 2 14 -3 11 -10 -7 -21 17 -21 45 0 10 -4 19 -9 19 -4 0 -7 10 -7 23 1 12 -1 29 -5 37 -3 8 -9 44 -13 80 -20 200 -38 312 -58 354 -10 22 -18 46 -18 53 0 8 -3 12 -7 10 -5 -3 -8 9 -9 26 -1 34 -11 82 -21 107 -7 18 -11 36 -17 70 -2 14 -6 32 -9 40 -3 8 -9 55 -12 104 -6 103 -11 128 -35 176 -9 19 -15 41 -13 48 3 6 -1 12 -7 12 -7 0 -10 6 -7 14 3 8 2 16 -2 18 -5 2 -11 21 -14 44 -3 22 -10 52 -15 65 -22 58 -33 101 -42 174 -6 46 -17 86 -25 95 -16 15 -73 16 -393 9 -34 -1 -65 1 -68 4 -3 3 -17 2 -30 -3 -13 -5 -25 -6 -28 -2 -2 4 -50 7 -105 6 -56 0 -101 4 -101 8 0 5 -5 6 -12 2 -11 -7 -39 -13 -73 -16 -5 -1 -21 2 -34 6 -14 5 -21 4 -18 -1 4 -6 -12 -9 -36 -7 -23 1 -42 3 -42 4 0 1 -8 3 -17 5 -10 2 -18 0 -18 -3 0 -7 -294 -6 -537 1 -90 3 -134 1 -137 -7 -3 -8 -7 -7 -13 1 -7 9 -18 10 -41 4 -20 -6 -32 -6 -32 0 0 6 -7 6 -19 -1 -13 -6 -22 -7 -26 0 -3 5 -15 6 -29 0 -12 -4 -29 -4 -36 0 -8 5 -22 4 -31 -1 -12 -6 -20 -5 -24 1 -4 6 -16 8 -26 5 -26 -9 -236 -8 -249 0 -5 3 -10 1 -10 -5 0 -6 -5 -8 -12 -3 -17 10 -49 10 -70 0 -10 -4 -18 -4 -18 2 0 8 -69 4 -79 -5 -2 -2 -12 1 -22 7 -12 6 -19 6 -19 0 0 -5 -8 -7 -17 -5 -38 9 -333 9 -333 1 0 -5 -5 -5 -12 0 -11 8 -130 10 -148 3 -3 -1 -9 -1 -15 0 -29 6 -1333 3 -1343 -4 -7 -4 -12 -4 -12 1 0 9 -149 7 -158 -2 -3 -2 -11 0 -19 6 -10 9 -13 8 -13 0 0 -7 -5 -9 -10 -6 -12 8 -340 12 -340 5 0 -3 -23 -5 -50 -5 -28 0 -50 4 -50 9 0 4 -6 3 -14 -3 -8 -7 -17 -8 -20 -3 -6 9 -81 7 -123 -3 -15 -3 -23 -1 -23 7 0 10 -2 10 -8 1 -4 -7 -13 -9 -20 -4 -12 7 -86 5 -109 -4 -7 -2 -15 0 -18 4 -5 9 -62 8 -71 -1 -3 -3 -20 -2 -38 2 -19 4 -39 4 -45 0 -7 -4 -33 -3 -59 1 -28 4 -55 3 -67 -4 -13 -7 -20 -7 -23 1 -3 9 -36 8 -90 -4 -13 -2 -21 -1 -19 3 5 8 -750 9 -758 2 -2 -3 -31 -2 -65 1 -33 3 -60 2 -60 -2 0 -5 -15 -6 -32 -2 -36 7 -151 7 -184 0 -11 -2 -27 0 -34 4 -8 5 -23 4 -34 -2 -14 -7 -21 -8 -23 -1 -3 7 -25 9 -56 6 -89 -8 -167 -8 -167 -1 0 7 -55 2 -70 -7 -6 -3 -10 -2 -10 3 0 5 -12 7 -27 5 -16 -2 -32 -4 -38 -4 -5 0 -149 3 -320 6 -319 5 -372 7 -440 20 -22 4 -47 8 -55 8 -8 0 -19 3 -25 7 -5 3 -23 7 -39 8 -16 1 -36 8 -44 15 -14 12 -99 29 -210 43 -29 4 -55 11 -58 15 -3 5 -14 9 -25 9 -12 0 -19 7 -19 20 0 11 -6 20 -14 20 -7 0 -19 6 -25 14 -7 8 -27 17 -46 20 -19 4 -35 10 -35 14 0 4 -19 8 -42 10 -22 1 -46 6 -52 10 -6 3 -20 8 -30 9 -10 2 -24 11 -31 20 -7 9 -17 13 -23 9 -7 -4 -12 -3 -12 3 0 28 -74 68 -140 75 -22 3 -70 28 -70 37 0 4 -9 11 -21 14 -11 4 -34 20 -52 36 -18 17 -46 43 -64 59 -17 17 -36 30 -41 30 -5 0 -29 19 -52 41 -24 23 -39 36 -35 28 8 -12 6 -12 -8 0 -10 8 -15 16 -13 19 6 6 -75 82 -87 82 -16 0 -70 46 -78 68 -5 12 -12 21 -17 20 -4 -2 -20 10 -35 26 -15 16 -27 26 -27 21 0 -10 -69 68 -70 78 0 11 -40 66 -77 107 -18 19 -33 42 -33 51 0 9 -6 22 -14 28 -8 7 -17 23 -20 37 -4 14 -22 46 -40 72 -19 26 -37 57 -40 70 -4 12 -12 22 -18 22 -6 0 -9 3 -5 6 5 6 -2 16 -49 68 -13 15 -24 31 -24 36 0 6 -27 64 -60 129 -33 66 -60 124 -60 129 0 6 -5 12 -10 14 -6 2 -13 17 -16 33 -8 40 -10 47 -19 68 -4 10 -5 20 -2 23 3 3 1 20 -4 37 -6 18 -12 54 -15 80 -3 29 -13 57 -24 70 -23 24 -22 22 -25 62 -1 17 -5 44 -10 60 -4 17 -7 38 -6 47 1 10 -1 18 -6 18 -4 0 -8 12 -9 27 0 16 -4 55 -9 88 -9 69 -9 610 0 625 3 6 3 10 -2 10 -4 0 -8 116 -8 258 0 141 -3 267 -7 280 -4 12 -4 22 0 22 4 0 7 479 7 1065 0 586 -3 1065 -7 1065 -4 0 -2 14 3 32 6 22 5 34 -2 39 -8 5 -8 8 0 13 8 5 8 13 0 28 -6 11 -7 18 -2 15 5 -3 9 12 9 34 0 21 -4 39 -9 39 -4 0 -5 4 -2 10 9 14 10 194 1 208 -4 7 -4 12 1 12 4 0 7 80 6 177 -3 206 -4 388 -3 388 1 0 2 93 3 208 1 114 -1 207 -5 207 -4 0 -5 6 -3 13 7 21 13 127 6 123 -3 -2 -5 44 -3 102 3 120 3 156 -1 192 -2 14 0 37 4 53 5 16 4 27 -2 27 -6 0 -7 5 -3 11 11 19 11 909 -1 909 -6 0 -6 3 1 8 13 9 14 783 0 774 -5 -3 -6 1 -1 8 10 17 13 180 3 173 -5 -2 -4 6 0 19 4 13 8 134 7 270 0 137 3 248 6 248 4 0 7 17 7 38 0 40 9 112 19 152 3 14 5 31 4 38 -1 6 2 12 8 12 5 0 8 7 7 17 -2 9 7 35 19 58 25 46 56 159 60 220 2 22 4 42 5 45 1 3 2 8 1 13 0 4 4 7 9 7 6 0 10 6 10 13 0 8 9 24 20 37 11 13 20 29 20 37 0 7 5 13 11 13 5 0 7 4 4 10 -3 5 2 21 11 35 9 14 14 28 10 32 -3 3 -1 12 5 20 6 7 8 13 4 13 -4 0 7 19 24 42 17 22 28 46 24 51 -3 6 -1 7 5 3 7 -4 12 -1 12 8 0 9 4 16 9 16 5 0 14 14 20 31 6 17 24 47 40 68 17 21 28 41 24 45 -3 3 4 6 16 6 17 0 21 4 17 15 -3 8 -2 15 2 15 9 0 58 72 55 81 -1 3 18 28 42 55 25 27 57 70 72 97 14 26 30 47 35 47 4 0 8 7 8 15 0 9 16 23 35 32 19 9 35 21 35 26 0 11 67 77 79 77 4 0 25 16 45 35 21 19 40 35 42 35 3 0 24 18 46 40 23 22 47 40 53 40 5 0 3 5 -5 10 -13 8 -13 10 2 10 9 0 22 8 27 18 6 9 11 13 11 9 0 -4 15 7 34 25 19 19 55 44 80 56 25 13 47 31 50 40 5 16 90 62 115 62 6 0 11 5 11 11 0 5 5 7 10 4 6 -3 10 -2 10 3 0 4 34 25 75 46 41 21 75 42 75 46 0 5 6 7 13 4 7 -2 30 2 50 11 20 8 37 12 37 9 0 -4 9 3 20 16 11 13 20 28 20 33 0 6 3 7 7 4 3 -4 16 -1 28 7 13 8 40 17 61 20 22 3 73 14 114 25 41 11 86 23 100 26 14 4 32 9 40 12 8 4 20 7 25 8 6 1 12 3 15 4 3 1 18 4 34 6 16 2 36 7 45 11 16 6 53 12 104 16 15 1 27 5 27 8 0 8 96 10 532 11 294 1 396 4 391 13 -5 8 -3 8 8 0 8 -7 52 -11 111 -10 55 0 94 -3 91 -8 -4 -5 -1 -6 6 -2 6 4 45 8 86 9 42 1 75 6 75 12 0 5 4 5 8 -2 5 -8 37 -12 97 -11 50 1 113 1 140 0 28 -1 70 -2 95 -1 362 2 1247 1 1255 -1 6 -1 15 -1 20 0 6 1 206 1 445 1 840 -2 984 0 992 13 5 7 8 7 8 -2 0 -7 5 -10 11 -6 13 8 366 9 389 1 18 -6 23 -6 161 -8 123 -1 166 6 178 29 14 27 3 65 -26 89 -14 13 -22 23 -17 23 5 0 0 7 -11 16 -11 8 -20 18 -21 22 -1 13 -15 46 -29 75 -8 15 -11 25 -6 22 5 -3 7 4 4 15 -3 11 -10 17 -16 13 -6 -4 -8 0 -4 10 3 10 3 17 -1 17 -4 0 -8 29 -9 65 -1 35 -7 74 -13 86 -7 11 -13 71 -15 133 -2 68 -9 126 -18 151 -8 22 -18 58 -22 80 -3 22 -7 45 -9 50 -1 6 -6 28 -11 50 -4 22 -14 46 -22 53 -7 8 -11 18 -8 23 4 5 1 9 -4 9 -6 0 -10 3 -9 8 2 12 -14 66 -25 79 -5 7 -7 24 -5 38 3 14 1 28 -3 31 -5 3 -9 17 -8 32 1 63 -28 222 -42 222 -5 0 -8 3 -7 8 2 11 -11 61 -34 124 -11 32 -20 76 -20 98 1 49 -22 79 -68 88 -19 5 -228 7 -465 5 -236 -2 -603 -3 -815 -2 -807 2 -3122 4 -3123 3z" fill="#536DFE"/>
<path d="M5493 13989 c-37 -9 -69 -22 -71 -28 -2 -6 -8 -11 -13 -11 -6 0 -20 -11 -33 -25 -13 -14 -30 -25 -39 -25 -8 0 -29 -16 -46 -35 -17 -19 -35 -35 -41 -35 -5 0 -10 -4 -10 -8 0 -5 -11 -14 -24 -20 -40 -18 -63 -111 -70 -285 -2 -37 -6 -70 -9 -74 -4 -3 -2 -12 4 -20 9 -10 8 -13 0 -13 -7 0 -9 -5 -4 -12 8 -13 12 -29 15 -60 1 -10 6 -18 11 -18 4 0 6 -4 3 -8 -6 -10 72 -87 97 -96 10 -3 16 -10 12 -15 -3 -5 5 -13 17 -16 13 -4 33 -17 46 -28 12 -11 22 -17 22 -12 0 5 11 -6 25 -25 14 -19 25 -30 25 -25 0 5 11 -2 25 -15 14 -13 33 -26 43 -28 32 -8 707 -7 730 0 13 5 21 5 19 0 -3 -4 41 -6 96 -4 56 2 282 3 502 3 220 0 443 0 495 0 52 0 102 0 110 0 8 0 65 0 125 0 61 1 166 1 235 0 266 -2 348 -1 418 1 39 2 72 0 72 -3 0 -4 16 -3 34 1 19 4 37 5 40 2 3 -3 36 -4 73 -2 157 6 273 5 273 -2 0 -3 12 -3 28 0 15 4 61 6 102 5 41 -1 129 -2 195 -2 115 0 130 0 158 -2 22 0 421 1 477 2 185 4 2501 3 2529 -1 18 -3 67 -3 107 0 42 3 75 1 77 -4 2 -6 9 -6 18 -1 14 10 215 8 231 -1 4 -3 8 -1 8 3 0 5 27 6 60 3 33 -3 60 -3 60 0 0 3 27 5 59 6 33 0 58 -3 55 -7 -3 -5 9 -3 26 3 17 5 44 8 61 4 16 -3 28 -2 25 2 -2 4 13 7 34 7 21 1 37 -2 35 -5 -4 -7 9 -7 300 -10 241 -3 264 1 315 47 22 21 55 45 73 53 17 8 36 24 42 35 17 34 48 64 58 58 6 -4 8 1 4 11 -4 9 -3 15 1 12 13 -8 27 6 55 54 15 25 27 39 27 33 0 -7 5 -13 12 -13 6 0 9 3 5 6 -3 3 2 22 13 41 15 28 17 50 14 111 -8 139 -16 175 -44 189 -14 7 -19 13 -12 13 16 0 9 9 -68 91 -88 93 -116 119 -130 119 -5 0 -10 5 -10 10 0 18 -60 70 -80 70 -10 0 -21 4 -24 8 -6 11 -367 9 -384 -2 -6 -4 -12 -3 -12 2 0 5 -17 6 -40 2 -22 -4 -43 -4 -45 1 -3 4 -15 5 -28 3 -35 -9 -219 -10 -249 -2 -15 3 -30 3 -33 -1 -2 -4 -24 -5 -49 -1 -24 3 -52 5 -62 3 -22 -4 -170 -4 -262 0 -34 1 -62 -2 -62 -7 0 -5 -6 -4 -12 1 -7 5 -58 8 -113 6 -88 -4 -330 -6 -330 -3 0 6 -356 4 -372 -2 -13 -4 -23 -4 -23 0 0 4 -35 6 -77 4 -94 -3 -161 -4 -228 -3 -27 0 -104 0 -170 0 -66 0 -124 0 -130 1 -40 6 -345 3 -345 -4 0 -5 -6 -4 -12 2 -7 5 -24 8 -38 5 -41 -6 -130 -8 -130 -3 0 3 -21 4 -47 3 -52 -4 -175 -5 -183 -3 -22 7 -41 7 -44 1 -3 -4 -32 -4 -65 -1 -34 3 -61 3 -61 0 0 -7 -146 -4 -159 4 -5 4 -12 2 -16 -3 -3 -6 -13 -7 -23 -4 -9 4 -32 6 -52 5 -57 -3 -164 -2 -168 3 -2 2 -15 0 -28 -5 -16 -6 -24 -6 -24 1 0 6 -5 7 -10 4 -13 -8 -228 -10 -235 -3 -4 3 -23 2 -43 -3 -20 -4 -39 -5 -42 -1 -8 11 -474 9 -482 -3 -5 -6 -8 -7 -8 0 0 6 -78 9 -217 8 -242 -3 -570 -3 -593 -1 -8 0 -30 -2 -47 -6 -22 -5 -33 -4 -33 4 0 7 -6 8 -17 3 -19 -9 -270 -9 -279 -1 -3 3 -19 3 -37 -1 -36 -7 -115 -6 -123 1 -3 3 -22 2 -42 -3 -20 -4 -39 -5 -42 -1 -6 10 -41 9 -56 0 -6 -4 -14 -4 -18 -1 -9 9 -253 11 -293 2 -18 -4 -33 -3 -33 1 0 8 -44 5 -59 -5 -6 -3 -11 -3 -11 2 0 12 -164 10 -172 -2 -5 -7 -8 -7 -8 0 0 6 -29 9 -72 8 -192 -6 -456 -6 -482 0 -16 3 -37 2 -46 -3 -10 -5 -20 -6 -24 -3 -9 9 -66 9 -66 0 0 -5 -5 -5 -12 -1 -6 4 -89 8 -185 8 -129 1 -191 -3 -240 -15z" fill="#536DFE"/>
<path d="M5579 11146 c-4 -4 -76 -15 -129 -20 -46 -3 -70 -17 -86 -47 -15 -31 -49 -69 -60 -69 -4 0 -21 -12 -40 -27 -18 -16 -46 -39 -62 -52 -32 -25 -58 -100 -61 -176 -1 -21 -6 -44 -12 -51 -7 -8 -6 -15 2 -19 8 -6 7 -10 -2 -16 -12 -7 -12 -9 0 -9 9 0 10 -4 4 -12 -10 -13 -10 -30 0 -79 7 -36 55 -129 66 -129 6 0 12 -8 15 -17 6 -17 31 -44 101 -109 16 -15 49 -33 74 -41 25 -7 47 -17 50 -22 4 -4 31 -17 61 -28 49 -17 76 -19 245 -15 135 3 7050 6 8080 4 44 0 593 1 1220 2 627 1 1152 -2 1168 -6 15 -3 27 -4 27 0 0 4 36 8 79 8 43 1 89 8 102 15 13 7 27 12 32 11 4 -1 7 2 7 8 0 5 20 15 43 21 24 6 57 23 73 37 16 15 29 25 29 23 0 -2 16 6 35 18 19 11 32 21 28 21 -4 0 1 18 11 40 17 38 55 80 73 80 4 0 8 6 8 13 0 6 7 24 15 40 13 25 14 135 1 212 -2 11 -7 42 -11 69 -6 41 -16 57 -54 93 -25 24 -49 43 -54 43 -4 0 -6 4 -3 9 3 4 -15 21 -39 37 -25 15 -47 36 -50 45 -10 29 -72 78 -95 74 -11 -2 -20 0 -20 4 0 5 -129 7 -287 4 -320 -5 -578 -6 -878 -4 -110 1 -303 2 -430 2 -830 0 -778 0 -1520 1 -181 0 -359 0 -395 -1 -36 0 -123 -1 -195 -1 -71 0 -139 0 -150 0 -41 -1 -1516 -1 -1645 -1 -74 1 -182 1 -240 1 -58 -1 -190 -1 -295 0 -104 1 -262 0 -350 0 -88 -1 -212 -1 -275 0 -63 0 -178 0 -255 -1 -77 0 -201 -1 -275 -1 -721 4 -1311 4 -1395 3 -11 -1 -112 0 -225 0 -470 3 -698 1 -709 -5 -6 -4 -15 -5 -20 -2 -7 4 -121 7 -256 6 -600 -6 -1018 0 -1056 15 -8 3 -17 4 -20 1z" fill="#536DFE"/>
<path d="M5550 8305 c-7 -8 -16 -12 -21 -9 -5 3 -9 0 -9 -6 0 -6 -4 -9 -9 -6 -5 3 -22 -1 -37 -9 -16 -8 -37 -15 -47 -15 -10 0 -20 -7 -23 -15 -4 -8 -10 -12 -15 -9 -12 7 -73 -37 -77 -56 -6 -24 -31 -47 -60 -53 -63 -14 -110 -92 -114 -190 -1 -21 -5 -40 -9 -42 -4 -3 -5 -14 -2 -25 3 -12 0 -20 -6 -20 -7 0 -9 -5 -5 -11 3 -6 6 -29 6 -52 -1 -23 5 -48 11 -56 9 -12 9 -13 0 -8 -9 6 -11 -2 -8 -28 5 -37 29 -82 55 -101 8 -7 26 -21 39 -33 13 -12 29 -21 34 -21 6 0 7 -3 4 -6 -7 -8 31 -44 45 -44 5 0 6 -5 2 -12 -4 -6 -3 -8 3 -5 11 7 52 -26 69 -54 5 -8 26 -25 47 -38 31 -19 56 -24 142 -28 63 -3 105 -1 105 5 0 5 29 9 65 8 36 -1 65 1 65 5 0 10 211 8 238 -2 15 -6 21 -5 17 1 -7 11 18 14 29 3 10 -11 36 -12 36 -3 0 5 20 3 46 -5 39 -12 44 -11 33 1 -10 12 -9 13 5 8 9 -3 16 -9 16 -13 0 -3 19 -7 43 -8 30 -2 38 0 27 7 -9 6 -10 10 -3 10 6 0 15 -4 18 -10 9 -14 42 -12 48 3 4 10 7 10 18 0 7 -7 22 -12 34 -12 17 1 17 2 2 6 -9 2 -15 9 -11 14 3 6 16 4 31 -6 17 -11 28 -14 35 -7 6 6 26 8 46 5 25 -4 33 -3 28 5 -5 8 -2 10 8 6 9 -3 16 -10 16 -15 0 -6 8 -5 19 1 27 14 92 14 71 0 -11 -8 -8 -9 15 -6 17 2 34 5 38 5 5 1 5 5 2 11 -3 6 1 7 9 4 9 -3 16 -10 16 -15 0 -5 4 -9 10 -9 5 0 7 7 4 15 -4 10 0 13 17 10 12 -3 26 -10 30 -16 5 -8 8 -6 10 6 4 18 5 18 22 1 9 -10 17 -12 17 -6 0 6 5 8 10 5 6 -3 10 -2 10 4 0 6 7 8 16 4 13 -5 13 -7 2 -14 -9 -6 -9 -9 -1 -9 6 0 15 4 18 10 4 6 13 5 25 -2 14 -9 22 -9 34 1 8 7 21 9 27 5 8 -5 9 -3 4 6 -5 8 -3 11 6 8 8 -3 13 -11 11 -18 -3 -11 0 -11 12 0 11 8 16 9 16 1 0 -6 12 -10 28 -10 23 2 24 2 5 6 -48 9 -20 19 57 21 72 1 101 -8 68 -21 -9 -4 -10 -6 -1 -6 6 -1 18 5 25 12 15 15 96 17 117 3 9 -6 16 -6 18 0 5 14 112 7 131 -8 10 -8 13 -8 9 -2 -4 7 2 14 13 17 11 3 23 1 26 -4 3 -5 0 -9 -7 -9 -7 0 -10 -3 -7 -6 4 -3 17 2 31 11 16 10 27 12 31 6 4 -6 14 -7 22 -4 9 3 20 0 25 -8 7 -12 12 -12 31 0 27 18 164 24 191 9 15 -8 18 -7 12 3 -6 9 -3 11 9 6 10 -4 29 -7 42 -7 18 0 23 -4 18 -12 -6 -10 -5 -10 7 -1 11 9 19 9 26 2 6 -6 23 -9 39 -6 29 4 28 4 -3 6 -18 0 -33 5 -33 10 0 5 21 7 48 5 26 -2 52 -3 57 -4 6 0 3 -5 -5 -10 -12 -8 -9 -10 12 -10 15 0 30 5 33 10 3 6 12 10 18 10 9 0 8 -3 -1 -8 -8 -6 -1 -9 20 -9 18 0 27 2 20 5 -6 2 -10 8 -7 12 8 13 36 0 29 -14 -4 -6 1 -4 10 5 10 10 27 14 43 11 18 -3 21 -7 11 -13 -9 -6 -6 -9 10 -9 13 0 21 4 18 9 -3 5 1 11 9 15 8 3 14 2 14 -2 -3 -19 2 -25 11 -12 13 21 162 22 171 2 4 -12 7 -12 20 0 16 16 69 22 69 9 0 -5 -6 -11 -12 -14 -7 -2 -2 -2 10 0 15 2 21 0 17 -6 -3 -7 0 -8 10 -5 14 6 14 8 -2 20 -19 14 -6 19 21 8 9 -3 13 -10 10 -15 -3 -5 2 -9 10 -9 8 0 18 5 22 12 4 7 3 8 -4 4 -7 -4 -12 -4 -12 1 0 11 118 14 125 2 4 -5 14 -5 26 1 13 8 19 7 19 0 0 -7 5 -8 13 -3 16 11 177 10 170 0 -3 -5 3 -5 13 1 28 14 745 13 763 -2 8 -6 12 -6 9 -1 -4 7 13 10 46 10 43 0 53 -3 49 -15 -4 -13 -4 -13 6 0 9 13 51 15 266 16 156 1 255 -3 255 -9 0 -5 6 -7 14 -4 7 3 19 0 26 -6 10 -9 11 -9 6 1 -4 6 -2 13 3 13 6 1 17 2 24 3 6 1 21 -5 31 -13 11 -9 16 -10 12 -3 -4 6 -2 13 3 13 38 4 56 1 54 -9 -2 -6 4 -9 12 -6 8 4 15 9 15 13 0 9 48 7 57 -2 3 -4 13 -7 22 -7 14 0 14 2 1 10 -12 8 -9 10 13 10 16 0 27 -5 27 -14 0 -9 8 -12 25 -8 14 2 23 8 20 12 -3 5 11 7 31 5 20 -2 41 -9 45 -17 7 -10 9 -9 9 3 0 14 9 16 46 14 25 -1 49 -7 54 -14 5 -10 9 -9 13 3 4 9 11 16 17 16 6 0 9 -4 6 -9 -4 -5 8 -4 24 2 20 8 33 8 38 2 9 -13 32 -17 32 -6 0 4 11 6 25 3 14 -2 25 -9 25 -14 0 -6 6 -5 14 2 10 8 20 9 33 2 13 -8 21 -6 31 6 7 10 11 11 7 5 -4 -9 1 -13 14 -13 12 0 21 4 21 10 0 6 9 6 26 0 34 -13 47 -13 38 3 -5 9 -4 9 6 0 7 -6 19 -9 28 -6 10 4 13 2 8 -5 -4 -7 -3 -12 3 -12 5 0 13 5 16 10 5 8 11 7 21 -1 8 -6 17 -9 21 -5 3 3 1 6 -5 6 -7 0 -12 3 -12 8 0 4 28 7 63 7 49 0 61 -3 59 -15 -3 -11 1 -11 16 3 20 18 72 23 72 7 0 -5 7 -10 15 -10 8 0 15 4 15 9 0 5 16 5 37 0 25 -5 40 -4 44 3 5 8 16 7 39 -2 28 -12 34 -11 44 1 11 14 46 15 46 0 0 -3 11 -8 25 -9 14 -1 25 3 25 9 0 5 5 7 10 4 6 -4 22 -8 36 -11 18 -3 23 -1 18 7 -5 8 -3 9 7 3 8 -4 20 -9 28 -11 8 -1 25 -4 38 -8 15 -3 23 -1 23 7 0 9 3 8 10 -2 9 -13 10 -13 10 0 0 13 1 13 10 0 8 -11 12 -12 18 -3 5 8 13 9 22 3 22 -14 47 -12 64 6 15 14 16 14 16 0 0 -9 7 -16 16 -16 8 0 13 4 10 9 -3 5 11 7 32 4 71 -9 101 -10 96 -1 -3 4 0 8 5 8 6 0 11 -6 11 -12 0 -7 11 -13 25 -13 31 0 31 3 4 14 -16 5 -7 7 29 7 27 -1 48 -4 46 -7 -2 -3 8 -4 21 -1 14 2 22 8 20 13 -3 4 9 4 27 -1 19 -6 36 -6 43 0 7 6 16 5 25 -3 10 -9 11 -9 6 0 -5 9 7 11 51 7 65 -7 67 -7 106 -1 15 2 27 0 27 -5 0 -5 7 -5 18 1 25 13 25 13 56 1 23 -8 31 -8 38 2 6 10 8 10 8 0 0 -8 11 -11 30 -10 17 1 30 6 30 11 0 5 8 3 17 -4 12 -10 15 -11 9 -1 -8 13 19 12 57 -3 10 -4 17 -3 17 4 0 6 7 11 16 11 11 0 14 -5 10 -16 -5 -12 -2 -15 10 -10 8 3 22 6 30 6 9 0 13 5 9 13 -4 6 0 4 9 -7 10 -13 21 -16 33 -11 10 5 20 9 23 10 3 1 13 5 23 10 21 9 37 -3 18 -14 -8 -5 -1 -8 18 -7 17 1 31 5 31 10 0 4 11 1 24 -8 14 -9 27 -12 30 -7 3 4 26 5 51 1 25 -4 45 -3 45 2 0 5 4 6 10 3 6 -3 10 -2 10 4 0 5 11 8 25 6 14 -1 25 2 25 6 0 5 8 9 19 9 35 0 90 30 105 58 8 15 16 25 18 23 5 -6 88 39 88 48 0 5 25 34 55 65 66 69 77 104 78 241 0 108 -16 193 -39 202 -8 3 -14 10 -14 17 0 17 -56 76 -73 76 -12 0 -28 15 -67 65 -12 15 -12 17 -1 10 8 -5 12 -4 8 1 -6 10 -89 54 -110 58 -7 2 -19 6 -27 9 -45 17 -100 31 -134 33 -22 2 -46 6 -53 8 -8 3 -12 2 -9 -3 3 -5 -11 -7 -32 -6 -20 1 -37 4 -37 5 0 1 -8 3 -18 5 -10 2 -14 -1 -11 -7 4 -7 -2 -7 -17 -2 -13 4 -31 6 -39 5 -8 -1 -51 -2 -94 -2 -44 -1 -89 -5 -101 -9 -12 -4 -28 -4 -37 1 -11 6 -19 5 -23 -1 -4 -6 -11 -8 -16 -4 -5 3 -98 5 -207 4 -241 -2 -323 0 -334 6 -4 3 -8 -1 -8 -8 0 -10 -2 -10 -8 -1 -9 14 -44 12 -54 -2 -5 -6 -8 -6 -8 1 0 8 -63 10 -205 10 -113 -1 -211 2 -218 6 -6 4 -17 2 -24 -4 -9 -7 -13 -7 -13 2 0 9 -4 9 -17 -1 -9 -8 -14 -9 -10 -2 7 12 -53 11 -73 -2 -5 -3 -10 0 -10 7 0 9 -2 10 -8 1 -5 -8 -26 -9 -69 -4 -41 5 -67 4 -74 -3 -9 -8 -10 -7 -4 3 6 10 4 12 -5 6 -7 -5 -99 -7 -204 -6 -105 1 -195 1 -201 1 -5 0 -46 -2 -90 -3 -44 -1 -86 -6 -92 -10 -7 -5 -13 -4 -13 2 0 8 -57 8 -80 0 -3 -1 -9 0 -15 1 -26 7 -457 5 -461 -2 -3 -5 -10 -5 -16 -2 -9 6 -160 16 -213 15 -45 -1 -103 -9 -113 -15 -7 -4 -12 -4 -12 1 0 4 -22 8 -49 8 -32 1 -47 -3 -43 -10 4 -7 1 -7 -9 0 -8 6 -54 11 -104 10 -49 0 -93 5 -97 10 -5 7 -8 7 -8 0 0 -6 -32 -10 -80 -10 -50 1 -80 -3 -80 -9 0 -6 -4 -5 -9 3 -7 10 -13 11 -30 2 -16 -9 -21 -9 -21 0 0 8 -4 8 -15 -1 -11 -9 -15 -9 -15 -1 0 8 -5 9 -16 3 -9 -5 -37 -6 -62 -2 -26 4 -129 6 -229 5 -111 -2 -183 1 -183 7 0 5 -5 6 -12 2 -6 -4 -44 -7 -85 -6 -52 1 -72 -2 -67 -10 5 -7 2 -8 -7 -2 -23 14 -37 15 -184 15 -203 0 -421 -8 -434 -15 -6 -4 -11 -2 -11 5 0 7 -4 8 -12 2 -10 -7 -83 -10 -83 -3 0 1 -10 3 -22 6 -13 2 -23 -1 -23 -7 0 -8 -4 -8 -14 1 -14 11 -101 8 -113 -4 -4 -3 -13 0 -21 7 -13 9 -14 9 -8 0 7 -13 -15 -19 -27 -7 -10 11 -97 10 -101 -1 -3 -6 -7 -6 -13 1 -5 7 -41 11 -91 10 -45 -1 -82 3 -82 7 0 5 -5 5 -12 -1 -6 4 -89 8 -185 8 -129 1 -191 -3 -240 -15z m1400 -941 c0 -2 -7 -4 -15 -4 -8 0 -15 4 -15 10 0 5 7 7 15 4 8 -4 15 -8 15 -10z m6260 6 c0 -5 -5 -10 -11 -10 -5 0 -7 5 -4 10 3 6 8 10 11 10 2 0 4 -4 4 -10z" fill="#536DFE"/>
<path d="M7136 7362 c-3 -5 1 -9 9 -9 8 0 12 4 9 9 -3 4 -7 8 -9 8 -2 0 -6 -4 -9 -8z"/>
<path d="M7290 7366 c0 -2 7 -7 16 -10 8 -3 12 -2 9 4 -6 10 -25 14 -25 6z"/>
<path d="M10336 7362 c-3 -5 1 -9 9 -9 8 0 12 4 9 9 -3 4 -7 8 -9 8 -2 0 -6 -4 -9 -8z"/>
<path d="M10881 7360 c-9 -5 -4 -7 13 -7 29 0 32 2 13 10 -8 3 -20 2 -26 -3z"/>
<path d="M6586 7352 c-2 -4 4 -8 15 -8 10 0 19 4 19 8 0 4 -6 8 -14 8 -8 0 -17 -4 -20 -8z"/>
<path d="M9058 7353 c7 -3 16 -2 19 1 4 3 -2 6 -13 5 -11 0 -14 -3 -6 -6z"/>
<path d="M10228 7353 c7 -3 16 -2 19 1 4 3 -2 6 -13 5 -11 0 -14 -3 -6 -6z"/>
</g>
</svg>
