<svg width="1600" height="900" viewBox="0 0 1600 900" fill="none" xmlns="http://www.w3.org/2000/svg" role="img" aria-labelledby="title desc">
  <title id="title">PDF AI Chat article hero</title>
  <desc id="desc">A minimal editorial-style illustration of a PDF document, highlighted passages, and AI chat bubbles for the AskPDF article.</desc>
  <rect width="1600" height="900" fill="#F3F6FA"/>
  <rect x="112" y="96" width="1376" height="708" fill="#E5EBF3"/>
  <rect x="232" y="132" width="736" height="620" fill="#FFFFFF" stroke="#CBD5E1" stroke-width="2"/>
  <rect x="280" y="196" width="230" height="24" fill="#0F172A"/>
  <rect x="280" y="246" width="536" height="14" fill="#D6DEE9"/>
  <rect x="280" y="278" width="582" height="14" fill="#D6DEE9"/>
  <rect x="280" y="310" width="514" height="14" fill="#D6DEE9"/>
  <rect x="280" y="372" width="608" height="78" fill="#F8FBFF" stroke="#B8DCF9" stroke-width="2"/>
  <rect x="304" y="396" width="172" height="12" fill="#3EA8FF"/>
  <rect x="304" y="424" width="526" height="12" fill="#C8D7E8"/>
  <rect x="280" y="490" width="536" height="14" fill="#D6DEE9"/>
  <rect x="280" y="522" width="582" height="14" fill="#D6DEE9"/>
  <rect x="280" y="554" width="462" height="14" fill="#D6DEE9"/>
  <rect x="280" y="618" width="210" height="20" fill="#0F172A"/>
  <rect x="280" y="660" width="248" height="14" fill="#D6DEE9"/>
  <rect x="280" y="692" width="198" height="14" fill="#D6DEE9"/>
  <rect x="1024" y="206" width="344" height="164" fill="#FFFFFF" stroke="#CBD5E1" stroke-width="2"/>
  <rect x="1056" y="242" width="154" height="16" fill="#0F172A"/>
  <rect x="1056" y="282" width="260" height="12" fill="#D6DEE9"/>
  <rect x="1056" y="310" width="228" height="12" fill="#D6DEE9"/>
  <rect x="1056" y="338" width="196" height="12" fill="#D6DEE9"/>
  <rect x="1032" y="430" width="296" height="108" rx="54" fill="#0F172A"/>
  <rect x="1080" y="468" width="190" height="12" fill="#FFFFFF" fill-opacity="0.94"/>
  <rect x="1080" y="496" width="152" height="12" fill="#FFFFFF" fill-opacity="0.65"/>
  <path d="M1096 538L1062 586V534L1096 538Z" fill="#0F172A"/>
  <rect x="946" y="612" width="332" height="98" rx="49" fill="#3EA8FF"/>
  <rect x="994" y="648" width="208" height="12" fill="#FFFFFF" fill-opacity="0.94"/>
  <rect x="994" y="676" width="170" height="12" fill="#FFFFFF" fill-opacity="0.68"/>
  <path d="M1236 708L1272 754V700L1236 708Z" fill="#3EA8FF"/>
  <circle cx="928" cy="278" r="34" fill="#E8F4FF" stroke="#3EA8FF" stroke-width="2"/>
  <path d="M913 277H943" stroke="#3EA8FF" stroke-width="4" stroke-linecap="round"/>
  <path d="M928 262V292" stroke="#3EA8FF" stroke-width="4" stroke-linecap="round"/>
</svg>
